PathFileType	4	(X/Y/Z)	/Users/itak/Documents/Research/Walk-IL/dataset/trc/00491_00167.trc
DataRate	CameraRate	NumFrames	NumMarkers	Units	OrigDataRate	OrigDataStartFrame	OrigNumFrames
100.000000	100.000000	4	53	mm	100.000000	69	552
Frame#	Time	RPSI			LPSI			L3			STRN			T10			C7			CLAV			RBAK			LBAK			LSHO			LUPA			LAEL			LAOL			LWTS			LWPS			LFRA			LIFD			LHPS			LHTS			RSHO			RUPA			RAEL			RAOL			RWTS			RWPS			RFRA			RIFD			RHTS			RHPS			RBHD			LFHD			RFHD			LBHD			LHIP			RHIP			RASI			LASI			LKNE			LTHI			LANK			LTIP			LTOE			LMT1			LMT5			LHEE			RKNE			RTHI			RANK			RTIP			RTOE			RMT1			RMT5			RHEE			
		X1	Y1	Z1	X2	Y2	Z2	X3	Y3	Z3	X4	Y4	Z4	X5	Y5	Z5	X6	Y6	Z6	X7	Y7	Z7	X8	Y8	Z8	X9	Y9	Z9	X10	Y10	Z10	X11	Y11	Z11	X12	Y12	Z12	X13	Y13	Z13	X14	Y14	Z14	X15	Y15	Z15	X16	Y16	Z16	X17	Y17	Z17	X18	Y18	Z18	X19	Y19	Z19	X20	Y20	Z20	X21	Y21	Z21	X22	Y22	Z22	X23	Y23	Z23	X24	Y24	Z24	X25	Y25	Z25	X26	Y26	Z26	X27	Y27	Z27	X28	Y28	Z28	X29	Y29	Z29	X30	Y30	Z30	X31	Y31	Z31	X32	Y32	Z32	X33	Y33	Z33	X34	Y34	Z34	X35	Y35	Z35	X36	Y36	Z36	X37	Y37	Z37	X38	Y38	Z38	X39	Y39	Z39	X40	Y40	Z40	X41	Y41	Z41	X42	Y42	Z42	X43	Y43	Z43	X44	Y44	Z44	X45	Y45	Z45	X46	Y46	Z46	X47	Y47	Z47	X48	Y48	Z48	X49	Y49	Z49	X50	Y50	Z50	X51	Y51	Z51	X52	Y52	Z52	X53	Y53	Z53	

70	0.6900000000000001	-1643.786010742188	965.0843505859375	-411.8903503417969	-1558.467163085938	965.2333984375	-524.6891479492188	-1597.048950195312	1057.560180664062	-449.7177124023438	-1370.311767578125	1254.818115234375	-312.1587219238281	-1608.386596679688	1181.56103515625	-466.5439147949219	-1559.723999023438	1451.3125	-426.0326538085938	-1396.939697265625	1366.994018554688	-338.3902893066406	-1664.299194335938	1334.18212890625	-376.6446838378906	-1533.851318359375	1400.071533203125	-527.841552734375	-1404.867553710938	1419.4541015625	-540.3932495117188	-1356.076904296875	1296.597412109375	-621.9698486328125	-1316.468872070312	1078.5986328125	-621.8411254882812	-1418.514526367188	1063.370239257812	-611.702880859375	-1273.893432617188	880.781005859375	-527.7374267578125	-1278.391235351562	862.1057739257812	-599.6080322265625	-1292.404052734375	991.6383056640625	-612.9048461914062	-1266.71337890625	717.873291015625	-521.1033325195312	-1270.231201171875	784.5191040039062	-590.6170043945312	-1256.072631835938	794.9813232421875	-520.68603515625	-1584.771240234375	1423.65283203125	-252.5866546630859	-1637.843627929688	1363.59765625	-194.4845733642578	-1653.449951171875	1075.860107421875	-134.8890533447266	-1681.456665039062	1057.817504882812	-194.1273193359375	-1538.814453125	872.025146484375	-130.5615386962891	-1622.247924804688	856.589111328125	-104.5072555541992	-1653.320922851562	1017.589538574219	-123.4239807128906	-1536.354370117188	716.10107421875	-120.1236877441406	-1527.7197265625	775.461669921875	-112.3242263793945	-1603.859497070312	768.9505615234375	-99.89577484130859	-1529.032836914062	1649.926513671875	-307.7886352539062	-1338.85888671875	1667.479370117188	-389.7278747558594	-1397.305297851562	1669.839965820312	-272.3479614257812	-1465.259521484375	1650.280395507812	-474.0197143554688	-1382.761962890625	864.5245971679688	-541.8253784179688	-1636.958984375	861.4268798828125	-234.0117492675781	-1514.13134765625	901.421875	-218.9001770019531	-1347.858032226562	898.056396484375	-417.5639953613281	-1414.764526367188	447.1672668457031	-529.187255859375	-1376.055419921875	597.2463989257812	-525.737548828125	-1487.851684570312	45.51179122924805	-582.4610595703125	-1420.8505859375	302.6865539550781	-553.8024291992188	-1335.256469726562	44.45365905761719	-392.9054870605469	-1414.013061523438	51.52898788452148	-414.5221862792969	-1351.0947265625	47.16147994995117	-510.1055603027344	-1559.637451171875	47.12744522094727	-552.3593139648438	-1600.173217773438	469.841552734375	-241.3078308105469	-1609.973754882812	727.6456298828125	-199.5099639892578	-1665.684692382812	40.50689315795898	-279.5101928710938	-1611.488159179688	326.3424987792969	-235.2587280273438	-1457.7724609375	48.00004577636719	-200.1515045166016	-1492.809814453125	55.84637069702148	-263.000732421875	-1568.86962890625	46.11772155761719	-184.4129943847656	-1692.634643554688	33.39833450317383	-354.757080078125	
71	0.7000000000000001	-1643.750244140625	965.1578979492188	-412.0340270996094	-1558.315185546875	965.2763671875	-524.7212524414062	-1596.8427734375	1057.597412109375	-449.6687927246094	-1370.106201171875	1254.738647460938	-311.9062194824219	-1608.30224609375	1181.691284179688	-466.40576171875	-1559.313598632812	1451.303344726562	-425.7305603027344	-1396.609375	1366.939819335938	-338.1658020019531	-1664.001708984375	1334.327392578125	-376.3676147460938	-1533.48681640625	1400.107177734375	-527.5344848632812	-1404.5	1419.423217773438	-540.1137084960938	-1355.9287109375	1296.624145507812	-621.8170776367188	-1316.281494140625	1078.663940429688	-621.985595703125	-1418.388427734375	1063.423461914062	-611.7669677734375	-1273.679565429688	880.632080078125	-528.3948364257812	-1278.417236328125	862.1455078125	-600.3423461914062	-1292.242919921875	991.6389770507812	-613.289306640625	-1266.66748046875	717.6799926757812	-522.1947631835938	-1270.179077148438	784.455810546875	-591.5308837890625	-1255.964599609375	794.745849609375	-521.59765625	-1584.413208007812	1423.748291015625	-252.2886352539062	-1637.533935546875	1363.791870117188	-194.2076416015625	-1653.556762695312	1076.206787109375	-134.2619781494141	-1681.527954101562	1058.0546875	-193.4557800292969	-1539.210693359375	872.2411499023438	-129.5720062255859	-1622.664916992188	856.9500122070312	-103.5535736083984	-1653.512573242188	1017.951232910156	-122.7251129150391	-1536.934692382812	716.3180541992188	-118.8795776367188	-1528.258911132812	775.6980590820312	-111.1478958129883	-1604.3828125	769.298828125	-98.78668212890625	-1528.328002929688	1650.126953125	-307.8416442871094	-1338.301025390625	1667.367797851562	-390.1612548828125	-1396.43603515625	1669.908935546875	-272.6702270507812	-1464.845703125	1650.208740234375	-474.188720703125	-1382.59033203125	864.4700927734375	-541.8641357421875	-1636.962280273438	861.4154663085938	-234.1016693115234	-1514.138916015625	901.375732421875	-218.9364471435547	-1347.789306640625	898.0355224609375	-417.5716552734375	-1414.807861328125	447.1502380371094	-529.2416381835938	-1376.048583984375	597.2310180664062	-525.7806396484375	-1487.85546875	45.50871658325195	-582.4691162109375	-1420.851684570312	302.6940002441406	-553.8240966796875	-1335.262084960938	44.46352767944336	-392.92626953125	-1414.01611328125	51.54178619384766	-414.5033874511719	-1351.0908203125	47.1556510925293	-510.1068115234375	-1559.727416992188	47.27100372314453	-552.4232788085938	-1600.127807617188	469.8290100097656	-241.3167877197266	-1609.969970703125	727.6332397460938	-199.6052703857422	-1665.6845703125	40.50207138061523	-279.5150451660156	-1611.438842773438	326.31591796875	-235.3216552734375	-1457.773559570312	48.00508499145508	-200.1506652832031	-1492.79736328125	55.83613586425781	-263.0258483886719	-1568.868530273438	46.12430191040039	-184.4172058105469	-1692.643188476562	33.41067886352539	-354.7641296386719	
72	0.71	-1643.717529296875	965.2392578125	-412.2161865234375	-1558.148559570312	965.3319702148438	-524.769775390625	-1596.643310546875	1057.659545898438	-449.6407775878906	-1369.902587890625	1254.653564453125	-311.650634765625	-1608.232421875	1181.83447265625	-466.2714538574219	-1558.898559570312	1451.2998046875	-425.4290466308594	-1396.28515625	1366.886596679688	-337.9471130371094	-1663.683837890625	1334.470092773438	-376.065673828125	-1533.129150390625	1400.153442382812	-527.232421875	-1404.12548828125	1419.389526367188	-539.8346557617188	-1355.7685546875	1296.633056640625	-621.6578979492188	-1316.102172851562	1078.725830078125	-622.1337280273438	-1418.219604492188	1063.439453125	-611.8041381835938	-1273.466064453125	880.4713745117188	-529.0532836914062	-1278.437744140625	862.18603515625	-601.072021484375	-1292.070190429688	991.649169921875	-613.6651000976562	-1266.611572265625	717.4551391601562	-523.271240234375	-1270.16162109375	784.4030151367188	-592.43701171875	-1255.85205078125	794.5259399414062	-522.4906616210938	-1584.05224609375	1423.840698242188	-251.9972229003906	-1637.213012695312	1363.9755859375	-193.9299468994141	-1653.623901367188	1076.54833984375	-133.6281433105469	-1681.561401367188	1058.288696289062	-192.7855529785156	-1539.5517578125	872.4629516601562	-128.5860595703125	-1623.024780273438	857.3117065429688	-102.5998764038086	-1653.664916992188	1018.305480957031	-122.0181198120117	-1537.451904296875	716.5493774414062	-117.6297149658203	-1528.732543945312	775.9420776367188	-109.9737701416016	-1604.844116210938	769.65185546875	-97.66934967041016	-1527.594116210938	1650.317626953125	-307.9304504394531	-1337.708984375	1667.238647460938	-390.6567077636719	-1395.54931640625	1669.99462890625	-273.0433654785156	-1464.455078125	1650.113525390625	-474.4109802246094	-1382.422607421875	864.4249877929688	-541.9091796875	-1636.966186523438	861.3966064453125	-234.2220001220703	-1514.157104492188	901.3284912109375	-218.9822998046875	-1347.7216796875	898.0096435546875	-417.5929260253906	-1414.857543945312	447.1336059570312	-529.3082885742188	-1376.040405273438	597.2199096679688	-525.825927734375	-1487.85888671875	45.50449752807617	-582.4796142578125	-1420.871215820312	302.7065734863281	-553.8580932617188	-1335.26708984375	44.47324371337891	-392.9478454589844	-1414.020141601562	51.55537796020508	-414.4908447265625	-1351.0849609375	47.14848327636719	-510.1082153320312	-1559.790161132812	47.37142562866211	-552.47216796875	-1600.047241210938	469.8143310546875	-241.3096618652344	-1609.971557617188	727.6239624023438	-199.7090911865234	-1665.677001953125	40.50006103515625	-279.5185852050781	-1611.366455078125	326.2892150878906	-235.3653411865234	-1457.76953125	48.00601577758789	-200.1513977050781	-1492.775268554688	55.8211555480957	-263.0631713867188	-1568.864013671875	46.13214492797852	-184.4229583740234	-1692.6435546875	33.42312240600586	-354.77001953125	
73	0.72	-1643.683349609375	965.325439453125	-412.4263610839844	-1557.974853515625	965.4024047851562	-524.83154296875	-1596.4423828125	1057.745361328125	-449.6262817382812	-1369.701538085938	1254.564086914062	-311.3949584960938	-1608.164428710938	1181.9912109375	-466.1345520019531	-1558.4921875	1451.3115234375	-425.13720703125	-1395.967163085938	1366.8349609375	-337.7315368652344	-1663.354125976562	1334.60498046875	-375.7502136230469	-1532.7890625	1400.20947265625	-526.9424438476562	-1403.748291015625	1419.350463867188	-539.5601806640625	-1355.588134765625	1296.62255859375	-621.4885864257812	-1315.929565429688	1078.7822265625	-622.2821044921875	-1418.008422851562	1063.4248046875	-611.82373046875	-1273.27734375	880.2888793945312	-529.7117919921875	-1278.44189453125	862.2222290039062	-601.7889404296875	-1291.888061523438	991.6678466796875	-614.0289306640625	-1266.560668945312	717.19482421875	-524.3280639648438	-1270.174438476562	784.3580322265625	-593.3289184570312	-1255.740966796875	794.3181762695312	-523.3567504882812	-1583.687377929688	1423.93408203125	-251.7152099609375	-1636.87939453125	1364.15380859375	-193.6544189453125	-1653.651489257812	1076.886596679688	-132.9946594238281	-1681.5693359375	1058.533569335938	-192.1210632324219	-1539.8388671875	872.692138671875	-127.6044158935547	-1623.328491210938	857.6766357421875	-101.6534271240234	-1653.777221679688	1018.655883789062	-121.3056182861328	-1537.908569335938	716.7973022460938	-116.3783950805664	-1529.138305664062	776.1942138671875	-108.8114395141602	-1605.244506835938	770.0111083984375	-96.55197143554688	-1526.837280273438	1650.506225585938	-308.0563049316406	-1337.086791992188	1667.09033203125	-391.2090148925781	-1394.657958984375	1670.102783203125	-273.4721374511719	-1464.08251953125	1649.987670898438	-474.6824340820312	-1382.258544921875	864.3904418945312	-541.9619750976562	-1636.967529296875	861.3711547851562	-234.3766174316406	-1514.185180664062	901.2809448242188	-219.033447265625	-1347.650390625	897.9797973632812	-417.6265258789062	-1414.908813476562	447.1189575195312	-529.3855590820312	-1376.025268554688	597.2152709960938	-525.8680419921875	-1487.860961914062	45.49917984008789	-582.4918823242188	-1420.90380859375	302.7227478027344	-553.9004516601562	-1335.2705078125	44.4819221496582	-392.9709777832031	-1414.0244140625	51.56930160522461	-414.487548828125	-1351.07763671875	47.14055252075195	-510.1114196777344	-1559.827270507812	47.43196105957031	-552.5066528320312	-1599.940673828125	469.8002319335938	-241.2923889160156	-1609.97998046875	727.6196899414062	-199.8225708007812	-1665.662109375	40.49881744384766	-279.52099609375	-1611.278564453125	326.2662353515625	-235.3939208984375	-1457.762451171875	48.00362014770508	-200.1537017822266	-1492.7431640625	55.80112457275391	-263.1134338378906	-1568.856811523438	46.14112091064453	-184.4309997558594	-1692.639038085938	33.43244171142578	-354.7741088867188	
